name rise30.8019peak61.5557fall86.2505.mot
datacolumns 19
datarows 27
range 20.27825900000000 20.32159400000000
endheader
time	ground_force1_vx	ground_force1_vy	ground_force1_vz	ground_force1_px	ground_force1_py	ground_force1_pz	ground_force2_vx	ground_force2_vy	ground_force2_vz	ground_force2_px	ground_force2_py	ground_force2_pz	ground_torque1_x	ground_torque1_y	ground_torque1_z	ground_torque2_x	ground_torque2_y	ground_torque2_z	
20.27825900000000	-13.08620600000000	698.26624400000003	34.74568800000000	0.11173700000000	0.00000000000000	0.10740300000000	0.00000000000000	0.00000000000000	0.00000000000000	0.00000000000000	0.00000000000000	0.00000000000000	0.00000000000000	12.34715200000000	0.00000000000000	0.00000000000000	0.00000000000000	0.00000000000000	
20.27992800000000	-13.54851900000000	698.87712799999997	34.76565800000000	0.11067000000000	0.00000000000000	0.10741200000000	0.00000000000000	0.00000000000000	0.00000000000000	0.00000000000000	0.00000000000000	0.00000000000000	0.00000000000000	12.40098500000000	0.00000000000000	0.00000000000000	0.00000000000000	0.00000000000000	
20.28159500000000	-14.01548300000000	699.47622899999999	34.78644000000000	0.10960500000000	0.00000000000000	0.10742100000000	0.00000000000000	0.00000000000000	0.00000000000000	0.00000000000000	0.00000000000000	0.00000000000000	0.00000000000000	12.45570700000000	0.00000000000000	0.00000000000000	0.00000000000000	0.00000000000000	
20.28325700000000	-14.48691400000000	700.06445599999995	34.80806300000000	0.10854200000000	0.00000000000000	0.10743000000000	0.00000000000000	0.00000000000000	0.00000000000000	0.00000000000000	0.00000000000000	0.00000000000000	0.00000000000000	12.51130700000000	0.00000000000000	0.00000000000000	0.00000000000000	0.00000000000000	
20.28492800000000	-14.96262400000000	700.64281100000005	34.83056100000000	0.10748200000000	0.00000000000000	0.10744000000000	0.00000000000000	0.00000000000000	0.00000000000000	0.00000000000000	0.00000000000000	0.00000000000000	0.00000000000000	12.56777600000000	0.00000000000000	0.00000000000000	0.00000000000000	0.00000000000000	
20.28659400000000	-15.44241900000000	701.21239100000003	34.85397300000000	0.10642600000000	0.00000000000000	0.10744900000000	0.00000000000000	0.00000000000000	0.00000000000000	0.00000000000000	0.00000000000000	0.00000000000000	0.00000000000000	12.62510600000000	0.00000000000000	0.00000000000000	0.00000000000000	0.00000000000000	
20.28826200000000	-15.92610500000000	701.77437299999997	34.87834000000000	0.10537300000000	0.00000000000000	0.10745900000000	0.00000000000000	0.00000000000000	0.00000000000000	0.00000000000000	0.00000000000000	0.00000000000000	0.00000000000000	12.68329000000000	0.00000000000000	0.00000000000000	0.00000000000000	0.00000000000000	
20.28992500000000	-16.41348000000000	702.33001700000000	34.90371000000000	0.10432500000000	0.00000000000000	0.10746800000000	0.00000000000000	0.00000000000000	0.00000000000000	0.00000000000000	0.00000000000000	0.00000000000000	0.00000000000000	12.74232300000000	0.00000000000000	0.00000000000000	0.00000000000000	0.00000000000000	
20.29159300000000	-16.90434300000000	702.88064899999995	34.93013000000000	0.10328100000000	0.00000000000000	0.10747800000000	0.00000000000000	0.00000000000000	0.00000000000000	0.00000000000000	0.00000000000000	0.00000000000000	0.00000000000000	12.80219800000000	0.00000000000000	0.00000000000000	0.00000000000000	0.00000000000000	
20.29325800000000	-17.39848900000000	703.42766400000005	34.95765200000000	0.10224300000000	0.00000000000000	0.10748800000000	0.00000000000000	0.00000000000000	0.00000000000000	0.00000000000000	0.00000000000000	0.00000000000000	0.00000000000000	12.86291200000000	0.00000000000000	0.00000000000000	0.00000000000000	0.00000000000000	
20.29492200000000	-17.89571400000000	703.97251100000005	34.98632800000000	0.10120900000000	0.00000000000000	0.10749800000000	0.00000000000000	0.00000000000000	0.00000000000000	0.00000000000000	0.00000000000000	0.00000000000000	0.00000000000000	12.92446000000000	0.00000000000000	0.00000000000000	0.00000000000000	0.00000000000000	
20.29659400000000	-18.39581000000000	704.51668800000004	35.01621200000000	0.10018100000000	0.00000000000000	0.10750900000000	0.00000000000000	0.00000000000000	0.00000000000000	0.00000000000000	0.00000000000000	0.00000000000000	0.00000000000000	12.98683800000000	0.00000000000000	0.00000000000000	0.00000000000000	0.00000000000000	
20.29825600000000	-18.89857100000000	705.06173500000000	35.04735700000000	0.09915900000000	0.00000000000000	0.10751900000000	0.00000000000000	0.00000000000000	0.00000000000000	0.00000000000000	0.00000000000000	0.00000000000000	0.00000000000000	13.05004000000000	0.00000000000000	0.00000000000000	0.00000000000000	0.00000000000000	
20.29992300000000	-19.40378900000000	705.60922800000003	35.07982000000000	0.09814300000000	0.00000000000000	0.10753000000000	0.00000000000000	0.00000000000000	0.00000000000000	0.00000000000000	0.00000000000000	0.00000000000000	0.00000000000000	13.11406300000000	0.00000000000000	0.00000000000000	0.00000000000000	0.00000000000000	
20.30161100000000	-19.91125600000000	706.16076599999997	35.11365600000000	0.09713300000000	0.00000000000000	0.10754100000000	0.00000000000000	0.00000000000000	0.00000000000000	0.00000000000000	0.00000000000000	0.00000000000000	0.00000000000000	13.17890000000000	0.00000000000000	0.00000000000000	0.00000000000000	0.00000000000000	
20.30326800000000	-20.42076200000000	706.71796800000004	35.14891800000000	0.09612900000000	0.00000000000000	0.10755200000000	0.00000000000000	0.00000000000000	0.00000000000000	0.00000000000000	0.00000000000000	0.00000000000000	0.00000000000000	13.24454500000000	0.00000000000000	0.00000000000000	0.00000000000000	0.00000000000000	
20.30492200000000	-20.93209900000000	707.28246100000001	35.18566400000000	0.09513200000000	0.00000000000000	0.10756400000000	0.00000000000000	0.00000000000000	0.00000000000000	0.00000000000000	0.00000000000000	0.00000000000000	0.00000000000000	13.31099100000000	0.00000000000000	0.00000000000000	0.00000000000000	0.00000000000000	
20.30659600000000	-21.44505900000000	707.85587699999996	35.22394700000000	0.09414200000000	0.00000000000000	0.10757600000000	0.00000000000000	0.00000000000000	0.00000000000000	0.00000000000000	0.00000000000000	0.00000000000000	0.00000000000000	13.37823000000000	0.00000000000000	0.00000000000000	0.00000000000000	0.00000000000000	
20.30825700000000	-21.95943000000000	708.43984000000000	35.26382200000000	0.09315900000000	0.00000000000000	0.10758800000000	0.00000000000000	0.00000000000000	0.00000000000000	0.00000000000000	0.00000000000000	0.00000000000000	0.00000000000000	13.44625100000000	0.00000000000000	0.00000000000000	0.00000000000000	0.00000000000000	
20.30992500000000	-22.47500200000000	709.03596000000005	35.30534300000000	0.09218300000000	0.00000000000000	0.10760000000000	0.00000000000000	0.00000000000000	0.00000000000000	0.00000000000000	0.00000000000000	0.00000000000000	0.00000000000000	13.51504300000000	0.00000000000000	0.00000000000000	0.00000000000000	0.00000000000000	
20.31159600000000	-22.99156400000000	709.64582499999995	35.34856500000000	0.09121400000000	0.00000000000000	0.10761300000000	0.00000000000000	0.00000000000000	0.00000000000000	0.00000000000000	0.00000000000000	0.00000000000000	0.00000000000000	13.58459100000000	0.00000000000000	0.00000000000000	0.00000000000000	0.00000000000000	
20.31325400000000	-23.50890300000000	710.27099499999997	35.39354000000000	0.09025200000000	0.00000000000000	0.10762600000000	0.00000000000000	0.00000000000000	0.00000000000000	0.00000000000000	0.00000000000000	0.00000000000000	0.00000000000000	13.65488000000000	0.00000000000000	0.00000000000000	0.00000000000000	0.00000000000000	
20.31492900000000	-24.02680500000000	710.91299000000004	35.44032300000000	0.08929800000000	0.00000000000000	0.10764000000000	0.00000000000000	0.00000000000000	0.00000000000000	0.00000000000000	0.00000000000000	0.00000000000000	0.00000000000000	13.72589300000000	0.00000000000000	0.00000000000000	0.00000000000000	0.00000000000000	
20.31659100000000	-24.54505400000000	711.57328700000005	35.48896700000000	0.08835100000000	0.00000000000000	0.10765400000000	0.00000000000000	0.00000000000000	0.00000000000000	0.00000000000000	0.00000000000000	0.00000000000000	0.00000000000000	13.79760800000000	0.00000000000000	0.00000000000000	0.00000000000000	0.00000000000000	
20.31826100000000	-25.06343100000000	712.25330899999994	35.53952500000000	0.08741200000000	0.00000000000000	0.10766800000000	0.00000000000000	0.00000000000000	0.00000000000000	0.00000000000000	0.00000000000000	0.00000000000000	0.00000000000000	13.87000200000000	0.00000000000000	0.00000000000000	0.00000000000000	0.00000000000000	
20.31992100000000	-25.58171500000000	712.95442200000002	35.59205100000000	0.08648100000000	0.00000000000000	0.10768200000000	0.00000000000000	0.00000000000000	0.00000000000000	0.00000000000000	0.00000000000000	0.00000000000000	0.00000000000000	13.94304900000000	0.00000000000000	0.00000000000000	0.00000000000000	0.00000000000000	
20.32159400000000	-26.09968400000000	713.67792199999997	35.64659900000000	0.08555800000000	0.00000000000000	0.10769700000000	0.00000000000000	0.00000000000000	0.00000000000000	0.00000000000000	0.00000000000000	0.00000000000000	0.00000000000000	14.01672100000000	0.00000000000000	0.00000000000000	0.00000000000000	0.00000000000000	
